<?xml version="1.0" encoding="UTF-8" standalone="no"?>
<svg
   version="1.1"
   width="1024"
   height="1024"
   id="svg16"
   sodipodi:docname="ink_blending_1.svg"
   xml:space="preserve"
   inkscape:version="1.4.2 (f4327f4, 2025-05-13)"
   xmlns:inkscape="http://www.inkscape.org/namespaces/inkscape"
   xmlns:sodipodi="http://sodipodi.sourceforge.net/DTD/sodipodi-0.dtd"
   xmlns="http://www.w3.org/2000/svg"
   xmlns:svg="http://www.w3.org/2000/svg"><defs
     id="defs16"><linearGradient
       id="swatch16"
       inkscape:swatch="solid"><stop
         style="stop-color:#000000;stop-opacity:1;"
         offset="0"
         id="stop16" /></linearGradient></defs><sodipodi:namedview
     id="namedview16"
     pagecolor="#ffffff"
     bordercolor="#000000"
     borderopacity="0.25"
     inkscape:showpageshadow="2"
     inkscape:pageopacity="0.0"
     inkscape:pagecheckerboard="0"
     inkscape:deskcolor="#d1d1d1"
     inkscape:zoom="0.50754247"
     inkscape:cx="779.24513"
     inkscape:cy="426.56529"
     inkscape:window-width="1920"
     inkscape:window-height="974"
     inkscape:window-x="-11"
     inkscape:window-y="-11"
     inkscape:window-maximized="1"
     inkscape:current-layer="svg16" /><g
     id="g5"
     transform="matrix(6.7410166,0,0,6.9151306,-186.84539,-653.19254)"><g
       id="g1"><path
         d="m 112.5076,98.79061 c -0.22946,0.0021 -0.45878,0.0031 -0.68827,0.0021 -0.63467,-0.0042 -1.26926,-0.0042 -1.90395,-9.53e-4 -0.69317,0.0031 -1.38637,0.0031 -2.07953,0.0021 -1.35847,-0.0021 -2.7169,-0.0021 -4.07535,0.0021 -1.59556,0.0042 -3.19095,0.0052 -4.786529,0.0052 -2.84136,0 -5.682773,0.0021 -8.524121,0.0094 -2.768071,0.0052 -5.535991,0.01048 -8.30407,0.01048 h -0.517594 -0.516941 c -3.163092,0 -6.326244,0.0021 -9.489336,0.0052 -1.115974,10e-4 -2.231876,0.0021 -3.347851,0.0021 -1.373097,0 -2.746083,10e-4 -4.119175,0.0042 -0.70075,0.0021 -1.401669,0.0042 -2.102421,0.0042 -0.649934,0 -1.299793,-2.1e-5 -1.949724,0.0021 -0.23633,0.001 -0.47254,0.0021 -0.708872,0.0031 -0.326683,-0.001 -0.653253,-0.0021 -0.97993,0 -0.148914,0.001 -0.148963,0.001 -0.294928,0.0021 l -3.27e-4,9.53e-4 c -0.851624,0.001 -1.315084,0.166871 -1.968362,0.706322 -0.749277,0.851368 -0.749222,0.851318 -0.715412,2.992298 0.0039,0.22773 0.0063,0.45563 0.0072,0.68338 3.39e-4,0.4774 0.0018,0.95473 0.0072,1.43209 0.0084,0.61808 0.01542,1.23595 0.017,1.8541 0.0014,0.60059 0.0038,1.20124 0.0082,1.80183 0.0014,0.17367 0.0015,0.17367 0.0026,0.34391 0.0017,0.33069 0.0036,0.66125 0.0079,0.99192 l 0.0043,0.30438 c 0.0072,0.66075 0.04377,1.15839 0.338087,1.7537 0.56016,0.81623 0.723092,0.8719 1.746677,1.16436 h 2.619686 v 5.96741 c -0.363859,0 -0.363932,1.2e-4 -1.709074,1.24179 -0.07322,0.0677 -0.144085,0.13354 -0.215147,0.19922 -0.07563,0.07 -0.149269,0.13775 -0.222666,0.20558 -0.561933,0.51962 -1.132944,1.01937 -1.728367,1.50094 -0.390363,0.3143 -0.774633,0.62999 -1.149301,0.96291 -0.488435,0.44529 -0.974825,0.88948 -1.484119,1.31097 -0.658157,0.53244 -1.306897,1.06698 -1.932723,1.63735 -0.36862,0.33595 -0.739204,0.66465 -1.12347,0.98267 -0.658158,0.53244 -1.307224,1.06699 -1.93305,1.63736 -0.363328,0.3313 -0.727979,0.65511 -1.108102,0.96704 -0.673679,0.54109 -1.336661,1.09003 -1.978171,1.66891 -0.0857,0.078 -0.168924,0.15357 -0.252096,0.22918 l -0.239995,0.21484 c -0.07755,0.0713 -0.152627,0.14076 -0.227899,0.21004 -0.101042,0.0922 -0.101073,0.0922 -0.200106,0.18264 -0.717878,0.79927 -0.863632,1.28778 -0.873337,2.36439 l 0.0043,0.50774 c -0.0025,0.57689 -0.0044,1.15357 -0.0019,1.73043 0.0024,0.53624 0.0021,1.07244 9.81e-4,1.60868 -0.0021,0.94012 -0.0024,1.88008 -6.54e-4,2.82019 0.0029,1.40874 0.0032,2.81772 0.0023,4.22646 -0.0018,2.36938 -0.0015,4.73848 9.81e-4,7.10785 0.0026,2.35902 0.0046,4.71824 0.0046,7.07726 -4e-6,0.15082 2e-6,0.29729 0,0.44368 -1e-5,0.5945 -3.06e-4,1.18884 -3.27e-4,1.78334 -2.62e-4,5.57898 -0.129603,12.18642 -0.18016,17.76518 -0.131869,14.5505 3.686936,15.66774 12.834899,24.27601 3.192038,3.00374 10.677085,10.1005 15.956815,13.48326 5.824832,3.73202 12.455925,6.25949 18.868158,4.41451 0.893578,-0.25711 5.755048,-3.20183 10.118093,-6.32408 5.44145,-3.89398 9.20362,-6.73043 9.82122,-7.33829 14.0934,-12.23776 15.79264,-9.02296 16.5398,-28.9092 -1.8e-4,-0.24229 -2e-4,-0.24222 -3.2e-4,-0.4797 l -0.002,-3.82326 c -0.003,-5.49905 -0.006,-10.99785 -0.0113,-16.49692 -0.001,-0.88628 -0.001,-1.77264 -0.002,-2.65891 -0.002,-3.27323 -0.005,-6.54644 -0.0105,-9.81967 -10e-4,-1.29271 -0.003,-2.58537 -0.004,-3.87808 0,-1.07972 -0.001,-2.15962 -0.003,-3.23934 -0.001,-0.54367 -0.001,-1.0873 -0.002,-1.63098 0,-0.50082 -2.7e-4,-1.00171 -10e-4,-1.50253 -2.5e-4,-0.18473 -5.4e-4,-0.36384 -9.8e-4,-0.54313 1.4e-4,-0.17386 1.9e-4,-0.34283 3.2e-4,-0.51157 0,-0.15741 -4.1e-4,-0.31002 -9.8e-4,-0.4628 -3.4e-4,-0.24449 -0.005,-0.489 -0.0193,-0.73311 -0.33717,-1.01147 -0.33725,-1.01151 -4.51023,-4.43173 -0.64505,-0.52279 -1.2794,-1.0493 -1.89349,-1.60834 -0.49739,-0.45332 -1.00506,-0.88675 -1.52826,-1.31002 -0.5232,-0.42326 -1.03088,-0.8567 -1.52826,-1.31002 -0.36509,-0.33284 -0.73184,-0.65816 -1.11334,-0.97214 -0.71758,-0.57776 -1.41449,-1.16557 -2.08868,-1.79289 -0.55742,-0.51926 -1.12515,-1.01417 -1.71922,-1.49202 -0.12467,-0.0982 -0.24552,-0.19342 -0.36653,-0.28879 l -0.38843,-0.32956 c -0.17846,-0.14407 -0.35341,-0.29266 -0.52545,-0.44433 -0.50356,-0.50911 -0.6139,-0.87189 -0.63106,-1.57775 0.003,-0.18683 0.003,-0.18691 0.006,-0.37005 -0.005,-0.3972 -0.0105,-0.7939 -0.008,-1.19113 0.002,-0.27539 0.002,-0.55077 -3.3e-4,-0.82616 -0.009,-0.81057 -0.0114,-1.62074 -0.006,-2.43133 l 1.01329,0.006 c 0.14101,0.001 0.27805,0.001 0.41492,0.002 0.20687,10e-4 0.20694,10e-4 0.4097,0.003 0.13386,2.5e-4 0.26374,8.3e-4 0.39367,10e-4 0.80465,0.005 1.25444,-0.18143 1.84379,-0.74203 0.67219,-0.98825 0.672,-0.9882 0.65688,-3.20585 -10e-4,-0.22773 -0.002,-0.45564 -0.002,-0.68339 0,-0.47736 -3e-5,-0.95472 -0.002,-1.43208 -0.004,-0.61808 -0.006,-1.236 -0.005,-1.8541 0.001,-0.48412 0.002,-0.96804 6.6e-4,-1.45216 -0.001,-0.23112 -0.001,-0.46247 -0.002,-0.69359 0.001,-0.33069 9.6e-4,-0.66122 -10e-4,-0.99191 -0.002,-0.15371 -0.002,-0.15372 -0.003,-0.30439 -0.003,-0.87424 -0.10788,-1.32684 -0.6971,-1.97553 -0.86496,-0.783403 -0.86491,-0.783487 -2.93652,-0.763067 z m -52.983599,4.76863 h 51.231369 v 4.65741 H 59.524001 Z m 4.657367,9.31512 H 106.098 v 4.65739 H 64.181368 Z m 39.854752,9.13375 c 3.59538,-0.0434 3.59523,-0.0433 4.49814,0.68816 0.29147,0.29135 0.52916,0.60997 0.76577,0.94665 0.18014,0.16902 0.36431,0.33397 0.55487,0.49116 0.13817,0.12017 0.13793,0.12029 0.27891,0.24289 0.69828,0.60212 1.39857,1.20172 2.09914,1.80118 0.34511,0.29537 0.69,0.59108 1.03487,0.88674 0.16883,0.14474 0.33792,0.28942 0.50679,0.43412 0.42852,0.36718 0.85654,0.73451 1.28434,1.10251 0.17246,0.1482 0.34513,0.29646 0.51761,0.44464 0.12499,0.10744 0.12491,0.10744 0.25243,0.21706 0.41856,0.35892 0.83931,0.71495 1.26438,1.06617 0.0816,0.0674 0.16313,0.13485 0.24719,0.20432 0.22384,0.1844 0.44816,0.36804 0.67258,0.55174 0.10247,0.0895 0.20507,0.17902 0.31062,0.27123 v 0.14567 H 51.955615 c 1.125701,-1.12571 2.300647,-2.17124 3.539128,-3.17081 0.382878,-0.316 0.751384,-0.64284 1.118239,-0.97724 0.494263,-0.45053 0.99867,-0.88073 1.519105,-1.30077 0.553557,-0.44767 1.086164,-0.90982 1.610003,-1.39193 0.774506,-0.71228 1.577032,-1.38387 2.401598,-2.03738 0.08742,-0.0766 0.174776,-0.15312 0.264847,-0.23203 0.391453,-0.25238 0.623414,-0.26019 1.086849,-0.26231 v 0.001 c 0.156831,-0.002 0.313832,-0.003 0.475415,-0.005 0.172199,3e-4 0.344099,3.6e-4 0.521517,6.4e-4 0.274526,-0.002 0.274798,-0.002 0.55487,-0.004 0.508361,-0.003 1.016617,-0.004 1.52499,-0.005 0.548178,-0.001 1.096165,-0.004 1.644335,-0.008 1.324073,-0.006 2.648272,-0.0105 3.972364,-0.0131 0.623758,-10e-4 1.247495,-0.003 1.871252,-0.005 2.073946,-0.005 4.147968,-0.0113 6.221921,-0.0131 0.199123,-1.5e-4 0.199031,-3.6e-4 0.402174,-6.5e-4 0.133066,-1.3e-4 0.266058,-1.7e-4 0.403155,-3.1e-4 0.269633,-3e-4 0.53929,-6.7e-4 0.808925,-9.7e-4 0.200621,-1.4e-4 0.200767,-2e-5 0.405443,-3.1e-4 2.165943,-0.002 4.331647,-0.0113 6.497558,-0.0225 2.224435,-0.0117 4.449,-0.018 6.673463,-0.0189 1.248676,-5.8e-4 2.497142,-0.003 3.745775,-0.0125 1.063599,-0.008 2.126969,-0.0105 3.190579,-0.006 0.54238,0.002 1.08465,10e-4 1.627,-0.005 z m -56.155538,14.15324 h 74.518208 c 0.021,8.67232 0.0421,17.3445 0.0638,26.27961 0.009,2.74134 0.0185,5.48284 0.0281,8.30726 0.004,3.33978 0.004,3.33955 0.005,4.90155 0.001,1.09422 0.004,2.18847 0.0105,3.28268 0.006,1.26139 0.009,2.52263 0.008,3.78405 -5.7e-4,0.64554 3.5e-4,1.29114 0.005,1.93665 0.004,0.58363 0.005,1.16687 0.002,1.75051 -4.4e-4,0.21109 9.3e-4,0.42229 0.004,0.63334 -0.0492,1.00282 -0.28947,2.32896 -0.65787,2.90656 -1.70463,2.84528 -4.04873,4.06547 -6.89843,6.58799 0,0 -8.81413,7.34648 -20.7466,15.81736 -6.784588,5.89419 -11.061105,6.07513 -19.581286,-0.33722 -3.711259,-2.01225 -7.013494,-5.29513 -10.323112,-8.2161 -5.346317,-4.71846 -10.365643,-9.41529 -14.569478,-13.19001 -0.663768,-1.70224 -1.648479,-2.28253 -1.932068,-9.05981 -0.165259,-3.94938 -0.0426,-10.52943 -0.0094,-19.10481 z"
         style="fill:#020202;stroke-width:0.145543;paint-order:markers stroke fill"
         id="path12" /><path
         d="m 53.265539,130.19391 c 0.09605,0.0481 0.192117,0.0961 0.291087,0.14554 -0.288177,0.28818 -0.576353,0.57636 -0.873262,0.87328 21.517187,0.0481 43.03437,0.0961 65.203606,0.14554 0.0481,-0.0961 0.0961,-0.19214 0.14554,-0.2911 0.0961,0.1441 0.19212,0.28818 0.29109,0.43663 -21.90143,0 -43.802852,0 -66.367955,0 0.436632,-0.43663 0.873262,-0.87326 1.309894,-1.30989 z"
         fill="#d1d1d0"
         id="path15"
         style="stroke-width:0.145543" /><ellipse
         style="fill:#000000;fill-opacity:1;stroke:none;stroke-width:1.98096"
         id="path1"
         cx="74.615837"
         cy="219.28316"
         rx="11.961773"
         ry="5.0745101"
         transform="matrix(1,0,0.04756515,0.99886814,0,0)" /><rect
         style="fill:#000000;fill-opacity:1;stroke:none;stroke-width:1.52139"
         id="rect1"
         width="6.3202081"
         height="83.160889"
         x="36.557587"
         y="155.47084" /><rect
         style="fill:#000000;fill-opacity:1;stroke:none;stroke-width:1.534"
         id="rect1-9"
         width="6.3202081"
         height="84.545547"
         x="128.79985"
         y="155.77982" /><rect
         style="fill:#000000;fill-opacity:1;stroke:none;stroke-width:2.37282"
         id="rect2-8"
         width="13.191046"
         height="96.922211"
         x="155.52348"
         y="-135.44452"
         transform="matrix(-0.00173081,0.9999985,-0.99999919,-0.00127421,0,0)" /><rect
         style="fill:#000000;stroke-width:4.06164"
         id="rect2"
         width="45.144852"
         height="51.528965"
         x="131.27325"
         y="102.69724" /><rect
         style="fill:#000000;stroke-width:4.06164"
         id="rect3"
         width="45.144852"
         height="51.528965"
         x="131.27325"
         y="104.32922" /><rect
         style="fill:#000000;stroke-width:1.93397"
         id="rect3-1"
         width="6.1195107"
         height="86.185616"
         x="159.3093"
         y="153.95253" /><rect
         style="fill:#fcfcfc;fill-opacity:1;stroke-width:4.06164"
         id="rect4"
         width="36.024681"
         height="23.712446"
         x="136.28934"
         y="107.71333" /><circle
         style="fill:#fcfcfc;fill-opacity:1;stroke-width:4.06164"
         id="path4"
         cx="141.53343"
         cy="141.22995"
         r="3.8760729" /><text
         xml:space="preserve"
         style="font-size:8.59318px;text-align:start;writing-mode:lr-tb;direction:ltr;text-anchor:start;fill:#fcfcfc;fill-opacity:1;stroke-width:16.1539"
         x="164.94476"
         y="103.17542"
         id="text4"
         transform="scale(0.83643456,1.1955508)"><tspan
           sodipodi:role="line"
           id="tspan4"
           style="font-size:8.59318px;fill:#000000;fill-opacity:1;stroke-width:16.1539"
           x="164.94476"
           y="103.17542">00:10:00</tspan></text></g></g></svg>
