<?xml version="1.0" encoding="iso-8859-1"?>
<!-- Uploaded to: SVG Repo, www.svgrepo.com, Generator: SVG Repo Mixer Tools -->
<svg fill="#000000" height="800px" width="800px" version="1.1" id="Layer_1" xmlns="http://www.w3.org/2000/svg" xmlns:xlink="http://www.w3.org/1999/xlink" 
	 viewBox="0 0 512 512" xml:space="preserve">
<g transform="translate(1 1)">
	<g>
		<path d="M502.467,152.6h-8.533c0-5.12-3.413-8.533-8.533-8.533s-8.533,3.413-8.533,8.533v68.267h-8.533v-34.133
			c0-5.12-3.413-8.533-8.533-8.533h-34.133c-5.12,0-8.533,3.413-8.533,8.533v34.133H400.92V203.8c0-0.853-0.853-1.707-0.853-2.56
			l-40.96-116.907c-7.68-20.48-27.307-34.133-48.64-34.133H234.52c-22.187,0-41.813,13.653-48.64,34.133L146.048,198.02
			c-1.101,1.276-1.787,2.942-1.944,4.9c-0.035,0.294-0.037,0.587-0.037,0.881v17.067H127V109.933c0-5.12-3.413-8.533-8.533-8.533
			H84.333H41.667c-1.707,0-4.267,0.853-5.973,2.56L1.56,138.093C-0.147,139.8-1,141.507-1,144.067v93.867
			c0,18.773,15.36,34.133,34.133,34.133H75.8v110.73c-10.418,7.715-17.067,20.118-17.067,34.336
			c0,23.893,18.773,42.667,42.667,42.667c23.893,0,42.667-18.773,42.667-42.667c0-14.218-6.649-26.621-17.067-34.336V237.933h17.067
			V255c0,3.119,1.272,5.599,3.419,7.065l58.874,96.188c5.973,10.24,17.067,16.213,29.013,16.213h73.387
			c11.947,0,23.04-5.973,30.72-16.213l60.587-98.987c0-0.853,0.853-2.56,0.853-4.267v-17.067h16.213v144.864
			c-10.418,7.715-17.067,20.118-17.067,34.336c0,23.893,18.773,42.667,42.667,42.667c23.893,0,42.667-18.773,42.667-42.667
			c0-14.218-6.649-26.621-17.067-34.336V237.933h8.533V306.2c0,5.12,3.413,8.533,8.533,8.533s8.533-3.413,8.533-8.533V169.667h8.533
			c5.12,0,8.533-3.413,8.533-8.533S507.587,152.6,502.467,152.6z M33.133,255c-9.387,0-17.067-7.68-17.067-17.067V229.4h17.067
			c5.12,0,8.533-3.413,8.533-8.533s-3.413-8.533-8.533-8.533H16.067v-17.067h17.067c5.12,0,8.533-3.413,8.533-8.533
			s-3.413-8.533-8.533-8.533H16.067v-30.72l29.013-29.013H75.8V255H33.133z M101.4,442.733c-14.507,0-25.6-11.093-25.6-25.6
			c0-8.674,3.968-16.125,10.259-20.716c1.053-0.253,1.982-0.617,2.541-0.617c8.533-5.12,17.067-5.12,25.6,0
			c1.008,0.672,2.15,1.069,3.318,1.212c5.837,4.626,9.482,11.811,9.482,20.121C127,431.64,115.907,442.733,101.4,442.733z
			 M101.4,374.467c-2.93,0-5.782,0.286-8.533,0.825V263.533V118.467h17.067v256.825C107.182,374.753,104.33,374.467,101.4,374.467z
			 M161.133,212.333H383v34.133H161.133V212.333z M202.093,90.307c5.12-13.653,17.92-23.04,32.427-23.04h75.947
			c14.507,0,27.307,9.387,32.427,23.04l36.542,104.96H164.774L202.093,90.307z M323.267,348.867
			c-3.413,5.12-8.533,8.533-14.507,8.533h-73.387c-5.973,0-11.093-3.413-14.507-8.533l-52.861-85.333h208.123L323.267,348.867z
			 M442.733,442.733c-14.507,0-25.6-11.093-25.6-25.6c0-8.31,3.645-15.495,9.482-20.121c1.169-0.143,2.31-0.54,3.318-1.212
			c8.533-5.12,17.067-5.12,25.6,0c1.151,0.576,1.918,0.76,2.816,0.821c6.131,4.607,9.984,11.966,9.984,20.512
			C468.333,431.64,457.24,442.733,442.733,442.733z M451.009,375.247c-2.529-0.773-5.798-0.781-8.276-0.781
			c-2.477,0-5.747,0.007-8.276,0.781c-0.085,0.016-0.172,0.028-0.258,0.045V195.267h17.067v180.025
			C451.181,375.275,451.094,375.263,451.009,375.247z"/>
	</g>
</g>
</svg>