<?xml version="1.0" encoding="UTF-8"?>
<!DOCTYPE svg PUBLIC "-//W3C//DTD SVG 1.1//EN" "http://www.w3.org/Graphics/SVG/1.1/DTD/svg11.dtd">
<svg xmlns="http://www.w3.org/2000/svg" version="1.1" width="1024px" height="1024px" style="shape-rendering:geometricPrecision; text-rendering:geometricPrecision; image-rendering:optimizeQuality; fill-rule:evenodd; clip-rule:evenodd" xmlns:xlink="http://www.w3.org/1999/xlink">
<g><path style="opacity:1" fill="#030303" d="M 370.5,35.5 C 378.521,35.4425 386.521,35.7758 394.5,36.5C 409.447,40.2821 421.614,48.2821 431,60.5C 457.365,104.339 483.865,148.006 510.5,191.5C 545.539,133.968 595.872,97.4679 661.5,82C 665.848,81.5355 670.181,81.0355 674.5,80.5C 691.821,79.7003 709.154,79.367 726.5,79.5C 787.437,84.7188 838.271,110.052 879,155.5C 920.76,203.205 939.593,258.872 935.5,322.5C 934.479,326.98 933.813,331.647 933.5,336.5C 931.361,345.724 929.861,355.057 929,364.5C 924.303,378.367 914.803,386.701 900.5,389.5C 810.5,389.5 720.5,389.5 630.5,389.5C 630.263,390.791 630.596,391.791 631.5,392.5C 631.833,392.5 632.167,392.5 632.5,392.5C 646.127,416.41 660.294,440.077 675,463.5C 688.663,490.355 699.163,518.522 706.5,548C 705.445,558.361 699.779,562.694 689.5,561C 685.961,559.093 683.461,556.26 682,552.5C 675.431,523.799 665.097,496.465 651,470.5C 576.284,346.371 501.117,222.705 425.5,99.5C 419.984,87.4752 412.65,76.6419 403.5,67C 398.201,62.8489 392.201,60.6822 385.5,60.5C 369.475,58.4189 356.308,63.7522 346,76.5C 269.85,205.465 193.184,334.132 116,462.5C 106.812,479.21 98.9785,496.544 92.5,514.5C 87.7012,527.149 84.0345,540.149 81.5,553.5C 79.9605,555.838 79.2938,558.505 79.5,561.5C 77.8533,567.38 76.8533,573.38 76.5,579.5C 74.9879,584.929 74.3213,590.596 74.5,596.5C 73.1961,615.495 73.1961,634.495 74.5,653.5C 74.1164,657.489 74.783,661.155 76.5,664.5C 88.4879,746.162 126.155,813.162 189.5,865.5C 234.324,903.605 285.991,926.605 344.5,934.5C 349.616,935.806 354.949,936.473 360.5,936.5C 488.794,940.445 586.627,888.112 654,779.5C 661.828,766.165 667.995,752.165 672.5,737.5C 674.226,735.058 675.726,732.391 677,729.5C 683.708,711.37 688.375,692.703 691,673.5C 695.456,666.43 701.622,664.596 709.5,668C 713.953,670.071 715.953,673.571 715.5,678.5C 714.991,682.867 714.324,687.201 713.5,691.5C 688.783,797.383 628.45,875.883 532.5,927C 514.54,934.488 496.54,941.655 478.5,948.5C 468.767,949.933 459.434,952.267 450.5,955.5C 448.735,956.461 446.735,956.795 444.5,956.5C 434.618,957.261 424.952,958.594 415.5,960.5C 415.167,960.5 414.833,960.5 414.5,960.5C 407.5,960.5 400.5,960.5 393.5,960.5C 374.807,960.498 356.14,959.832 337.5,958.5C 333.503,956.511 329.17,955.511 324.5,955.5C 318.922,954.023 313.256,953.023 307.5,952.5C 305.585,952.784 303.919,952.451 302.5,951.5C 302.389,950.883 302.056,950.383 301.5,950C 299.527,949.505 297.527,949.338 295.5,949.5C 295.167,949.5 294.833,949.5 294.5,949.5C 293.082,947.692 291.082,947.025 288.5,947.5C 288.389,946.883 288.056,946.383 287.5,946C 284.522,945.304 281.522,944.804 278.5,944.5C 274.414,942.248 270.081,940.582 265.5,939.5C 263.786,938.262 261.786,937.595 259.5,937.5C 241.095,929.075 223.428,919.408 206.5,908.5C 206.027,907.094 205.027,906.427 203.5,906.5C 201.95,905.559 200.284,904.893 198.5,904.5C 197.375,902.871 196.041,901.371 194.5,900C 185.888,894.387 177.554,888.387 169.5,882C 147.479,861.821 127.479,839.988 109.5,816.5C 87.6282,783.417 71.1282,747.75 60,709.5C 57.1481,695.145 54.3148,680.811 51.5,666.5C 51.3916,661.29 50.7249,656.29 49.5,651.5C 49.5,649.167 49.5,646.833 49.5,644.5C 49.3621,626.821 49.6954,609.154 50.5,591.5C 55.0482,543.368 68.5482,498.035 91,455.5C 170.823,323.197 250.157,190.53 329,57.5C 340.276,45.2794 354.109,37.9461 370.5,35.5 Z M 742.5,106.5 C 744.265,107.461 746.265,107.795 748.5,107.5C 757.761,110.195 767.095,113.028 776.5,116C 789.842,121.525 802.842,127.691 815.5,134.5C 818.429,136.982 821.429,139.482 824.5,142C 825.448,142.483 826.448,142.649 827.5,142.5C 829.606,145.055 831.94,147.388 834.5,149.5C 828.48,157.687 821.313,164.687 813,170.5C 809.068,176.347 809.068,182.013 813,187.5C 818.439,193.33 824.605,194.497 831.5,191C 839.458,185.043 846.791,178.377 853.5,171C 855.289,170.48 856.956,170.813 858.5,172C 884.654,202.133 901.154,236.633 908,275.5C 908.793,279.423 908.626,283.256 907.5,287C 895.134,287.647 882.801,288.647 870.5,290C 865.11,292.096 862.443,296.096 862.5,302C 862.568,306.726 864.235,310.726 867.5,314C 868.793,314.49 870.127,314.657 871.5,314.5C 871.833,314.5 872.167,314.5 872.5,314.5C 875.36,315.244 878.36,315.911 881.5,316.5C 889.479,315.802 897.479,315.135 905.5,314.5C 907.029,314.529 908.196,315.196 909,316.5C 908.3,331.314 906.3,345.981 903,360.5C 902.097,361.701 900.931,362.535 899.5,363C 852.821,363.186 806.155,363.686 759.5,364.5C 757.159,364.637 755.159,363.97 753.5,362.5C 764.217,335.355 774.55,308.022 784.5,280.5C 790.258,267.422 795.758,254.089 801,240.5C 802.399,231.131 798.899,224.298 790.5,220C 785.924,218.524 781.257,218.19 776.5,219C 771.999,221.416 767.666,224.083 763.5,227C 744.781,241.386 725.781,255.386 706.5,269C 694.004,275.747 681.671,282.747 669.5,290C 646.795,310.273 642.128,334.107 655.5,361.5C 655,362.5 654.5,363.5 654,364.5C 641.575,363.677 629.075,363.177 616.5,363C 587.084,314.167 557.418,265.5 527.5,217C 531.272,209.29 535.439,201.79 540,194.5C 546.615,184.949 553.948,175.949 562,167.5C 566.007,171.84 570.34,175.84 575,179.5C 581.142,192.271 590.309,195.271 602.5,188.5C 606.269,183.679 607.269,178.346 605.5,172.5C 598.507,163.841 590.84,155.841 582.5,148.5C 589.725,142.451 597.392,136.951 605.5,132C 631.132,117.546 658.632,108.713 688,105.5C 689.658,105.675 690.991,106.342 692,107.5C 692.807,117.214 692.641,126.881 691.5,136.5C 693.611,149.392 700.944,153.892 713.5,150C 715.709,148.127 717.542,145.96 719,143.5C 719.186,130.788 719.686,118.121 720.5,105.5C 721.167,105.167 721.833,104.833 722.5,104.5C 729.127,105.563 735.794,106.229 742.5,106.5 Z M 757.5,267.5 C 758.289,267.783 758.956,268.283 759.5,269C 748.303,295.913 737.47,323.079 727,350.5C 711.203,366.812 695.87,366.478 681,349.5C 673.898,335.075 676.398,322.575 688.5,312C 713.007,299.293 736.007,284.46 757.5,267.5 Z"/></g>
<g><path style="opacity:1" fill="#d2d2d2" d="M 728.5,103.5 C 733.167,104.5 737.833,105.5 742.5,106.5C 735.794,106.229 729.127,105.563 722.5,104.5C 721.833,104.833 721.167,105.167 720.5,105.5C 719.686,118.121 719.186,130.788 719,143.5C 717.542,145.96 715.709,148.127 713.5,150C 700.944,153.892 693.611,149.392 691.5,136.5C 692.641,126.881 692.807,117.214 692,107.5C 690.991,106.342 689.658,105.675 688,105.5C 658.632,108.713 631.132,117.546 605.5,132C 597.392,136.951 589.725,142.451 582.5,148.5C 590.84,155.841 598.507,163.841 605.5,172.5C 607.269,178.346 606.269,183.679 602.5,188.5C 590.309,195.271 581.142,192.271 575,179.5C 570.34,175.84 566.007,171.84 562,167.5C 553.948,175.949 546.615,184.949 540,194.5C 535.439,201.79 531.272,209.29 527.5,217C 557.418,265.5 587.084,314.167 616.5,363C 629.075,363.177 641.575,363.677 654,364.5C 654.5,363.5 655,362.5 655.5,361.5C 642.128,334.107 646.795,310.273 669.5,290C 681.671,282.747 694.004,275.747 706.5,269C 725.781,255.386 744.781,241.386 763.5,227C 767.666,224.083 771.999,221.416 776.5,219C 781.257,218.19 785.924,218.524 790.5,220C 798.899,224.298 802.399,231.131 801,240.5C 795.758,254.089 790.258,267.422 784.5,280.5C 784.421,277.729 784.921,275.063 786,272.5C 790.61,261.612 794.944,250.612 799,239.5C 800.076,234.399 798.91,229.899 795.5,226C 788.466,220.033 780.799,219.033 772.5,223C 753.833,237 735.167,251 716.5,265C 701.631,273.933 686.631,282.6 671.5,291C 648.327,312.042 643.993,336.542 658.5,364.5C 644.677,365.496 630.677,365.829 616.5,365.5C 586.956,316.763 557.123,268.096 527,219.5C 526.333,217.833 526.333,216.167 527,214.5C 535.556,196.108 547.056,179.774 561.5,165.5C 570.315,172.482 578.315,180.315 585.5,189C 595.921,192.292 602.254,188.625 604.5,178C 604.506,175.7 604.006,173.534 603,171.5C 595.292,163.625 587.459,155.958 579.5,148.5C 599.225,131.636 621.558,119.469 646.5,112C 662.032,106.911 678.032,104.077 694.5,103.5C 694.333,116.171 694.5,128.838 695,141.5C 698.558,149.443 704.391,151.61 712.5,148C 714.378,146.457 715.878,144.624 717,142.5C 717.5,129.504 717.667,116.504 717.5,103.5C 721.167,103.5 724.833,103.5 728.5,103.5 Z"/></g>
<g><path style="opacity:1" fill="#d7d7d7" d="M 935.5,332.5 C 935.5,329.167 935.5,325.833 935.5,322.5C 939.593,258.872 920.76,203.205 879,155.5C 838.271,110.052 787.437,84.7188 726.5,79.5C 719.842,78.8337 713.008,78.5004 706,78.5C 695.293,78.3445 684.793,79.0112 674.5,80.5C 670.181,81.0355 665.848,81.5355 661.5,82C 595.872,97.4679 545.539,133.968 510.5,191.5C 483.865,148.006 457.365,104.339 431,60.5C 421.614,48.2821 409.447,40.2821 394.5,36.5C 389.923,35.0103 385.09,34.3437 380,34.5C 376.648,34.5018 373.482,34.8351 370.5,35.5C 354.109,37.9461 340.276,45.2794 329,57.5C 250.157,190.53 170.823,323.197 91,455.5C 68.5482,498.035 55.0482,543.368 50.5,591.5C 49.7173,595.693 49.0506,600.027 48.5,604.5C 49.3671,570.002 55.8671,536.335 68,503.5C 74.1387,488.751 80.472,474.084 87,459.5C 150.53,353.766 213.53,247.766 276,141.5C 292.495,115.669 308.162,89.3356 323,62.5C 342.197,37.7604 367.364,28.5937 398.5,35C 411.473,39.29 422.306,46.79 431,57.5C 457.346,100.866 483.68,144.199 510,187.5C 546.859,129.469 599.025,93.3027 666.5,79C 770.472,65.915 850.638,103.082 907,190.5C 932.608,234.707 942.108,282.041 935.5,332.5 Z"/></g>
<g><path style="opacity:1" fill="#dadada" d="M 815.5,134.5 C 820.197,136.178 824.197,138.844 827.5,142.5C 826.448,142.649 825.448,142.483 824.5,142C 821.429,139.482 818.429,136.982 815.5,134.5 Z"/></g>
<g><path style="opacity:1" fill="#cacaca" d="M 748.5,107.5 C 750.167,107.5 751.833,107.5 753.5,107.5C 764.144,109.907 774.477,113.074 784.5,117C 793.553,121.361 802.553,126.028 811.5,131C 813.093,131.949 814.426,133.115 815.5,134.5C 802.842,127.691 789.842,121.525 776.5,116C 767.095,113.028 757.761,110.195 748.5,107.5 Z"/></g>
<g><path style="opacity:1" fill="#666665" d="M 728.5,103.5 C 737.137,103.732 745.47,105.065 753.5,107.5C 751.833,107.5 750.167,107.5 748.5,107.5C 746.265,107.795 744.265,107.461 742.5,106.5C 737.833,105.5 733.167,104.5 728.5,103.5 Z"/></g>
<g><path style="opacity:1" fill="#272727" d="M 726.5,79.5 C 709.154,79.367 691.821,79.7003 674.5,80.5C 684.793,79.0112 695.293,78.3445 706,78.5C 713.008,78.5004 719.842,78.8337 726.5,79.5 Z"/></g>
<g><path style="opacity:1" fill="#d6d6d6" d="M 373.5,61.5 C 377.298,60.5166 381.298,60.1832 385.5,60.5C 392.201,60.6822 398.201,62.8489 403.5,67C 412.65,76.6419 419.984,87.4752 425.5,99.5C 425.5,100.167 425.5,100.833 425.5,101.5C 420.861,93.7463 416.027,86.0797 411,78.5C 402.305,64.5712 389.805,58.9045 373.5,61.5 Z"/></g>
<g><path style="opacity:1" fill="#969696" d="M 370.5,35.5 C 373.482,34.8351 376.648,34.5018 380,34.5C 385.09,34.3437 389.923,35.0103 394.5,36.5C 386.521,35.7758 378.521,35.4425 370.5,35.5 Z"/></g>
<g><path style="opacity:1" fill="#d5d5d5" d="M 827.5,142.5 C 831.341,144.261 834.674,146.761 837.5,150C 830.368,157.463 822.868,164.63 815,171.5C 810.256,185.765 815.422,191.931 830.5,190C 838.474,182.695 846.474,175.362 854.5,168C 855.167,167.333 855.833,167.333 856.5,168C 882.569,194.97 899.569,226.803 907.5,263.5C 907.294,266.495 907.96,269.162 909.5,271.5C 910.241,277.471 910.575,283.471 910.5,289.5C 897.654,289.689 884.987,290.356 872.5,291.5C 866.56,292.955 863.893,296.789 864.5,303C 864.923,308.017 867.257,311.85 871.5,314.5C 870.127,314.657 868.793,314.49 867.5,314C 864.235,310.726 862.568,306.726 862.5,302C 862.443,296.096 865.11,292.096 870.5,290C 882.801,288.647 895.134,287.647 907.5,287C 908.626,283.256 908.793,279.423 908,275.5C 901.154,236.633 884.654,202.133 858.5,172C 856.956,170.813 855.289,170.48 853.5,171C 846.791,178.377 839.458,185.043 831.5,191C 824.605,194.497 818.439,193.33 813,187.5C 809.068,182.013 809.068,176.347 813,170.5C 821.313,164.687 828.48,157.687 834.5,149.5C 831.94,147.388 829.606,145.055 827.5,142.5 Z"/></g>
<g><path style="opacity:1" fill="#80807f" d="M 761.5,267.5 C 761.737,266.209 761.404,265.209 760.5,264.5C 761.14,262.668 762.14,262.335 763.5,263.5C 763.006,265.026 762.339,266.359 761.5,267.5 Z"/></g>
<g><path style="opacity:1" fill="#686868" d="M 907.5,263.5 C 908.768,265.905 909.435,268.572 909.5,271.5C 907.96,269.162 907.294,266.495 907.5,263.5 Z"/></g>
<g><path style="opacity:1" fill="#d1d1d1" d="M 760.5,264.5 C 761.404,265.209 761.737,266.209 761.5,267.5C 750.87,293.541 740.703,319.875 731,346.5C 723.984,359.26 713.151,365.093 698.5,364C 679.679,357.929 672.179,345.096 676,325.5C 677.814,320.036 680.98,315.536 685.5,312C 711.166,297.17 736.166,281.337 760.5,264.5 Z M 757.5,267.5 C 736.007,284.46 713.007,299.293 688.5,312C 676.398,322.575 673.898,335.075 681,349.5C 695.87,366.478 711.203,366.812 727,350.5C 737.47,323.079 748.303,295.913 759.5,269C 758.956,268.283 758.289,267.783 757.5,267.5 Z"/></g>
<g><path style="opacity:1" fill="#545554" d="M 910.5,289.5 C 898.034,291.058 885.367,291.725 872.5,291.5C 884.987,290.356 897.654,289.689 910.5,289.5 Z"/></g>
<g><path style="opacity:1" fill="#cccccc" d="M 425.5,99.5 C 501.117,222.705 576.284,346.371 651,470.5C 665.097,496.465 675.431,523.799 682,552.5C 683.461,556.26 685.961,559.093 689.5,561C 699.779,562.694 705.445,558.361 706.5,548C 699.163,518.522 688.663,490.355 675,463.5C 660.294,440.077 646.127,416.41 632.5,392.5C 633.919,391.549 635.585,391.216 637.5,391.5C 636.391,392.29 635.058,392.79 633.5,393C 644.635,410.813 655.802,428.646 667,446.5C 686.015,478.048 699.849,511.715 708.5,547.5C 707.676,559.495 701.343,564.662 689.5,563C 687.246,561.623 685.08,560.123 683,558.5C 677.752,541.763 672.419,525.43 667,509.5C 660.333,495.5 653.667,481.5 647,467.5C 572.91,345.652 499.076,223.652 425.5,101.5C 425.5,100.833 425.5,100.167 425.5,99.5 Z"/></g>
<g><path style="opacity:1" fill="#cbcbcb" d="M 784.5,280.5 C 774.55,308.022 764.217,335.355 753.5,362.5C 753.631,363.239 753.464,363.906 753,364.5C 752.329,363.748 751.496,363.414 750.5,363.5C 758.817,342.571 766.984,321.571 775,300.5C 777.722,293.435 780.889,286.768 784.5,280.5 Z"/></g>
<g><path style="opacity:1" fill="#989897" d="M 935.5,322.5 C 935.5,325.833 935.5,329.167 935.5,332.5C 935.5,333.167 935.5,333.833 935.5,334.5C 934.833,335.167 934.167,335.833 933.5,336.5C 933.813,331.647 934.479,326.98 935.5,322.5 Z"/></g>
<g><path style="opacity:1" fill="#464545" d="M 910.5,328.5 C 910.72,333.1 910.054,337.433 908.5,341.5C 908.156,336.878 908.823,332.545 910.5,328.5 Z"/></g>
<g><path style="opacity:1" fill="#d0d0d0" d="M 910.5,328.5 C 908.823,332.545 908.156,336.878 908.5,341.5C 907.339,347.482 906.172,353.482 905,359.5C 903.5,362.333 901.333,364.5 898.5,366C 848.83,366.833 799.163,366.667 749.5,365.5C 749.863,364.817 750.196,364.15 750.5,363.5C 751.496,363.414 752.329,363.748 753,364.5C 753.464,363.906 753.631,363.239 753.5,362.5C 755.159,363.97 757.159,364.637 759.5,364.5C 806.155,363.686 852.821,363.186 899.5,363C 900.931,362.535 902.097,361.701 903,360.5C 906.3,345.981 908.3,331.314 909,316.5C 908.196,315.196 907.029,314.529 905.5,314.5C 897.479,315.135 889.479,315.802 881.5,316.5C 878.36,315.911 875.36,315.244 872.5,314.5C 885.506,314.369 898.506,314.036 911.5,313.5C 911.497,318.527 911.164,323.527 910.5,328.5 Z"/></g>
<g><path style="opacity:1" fill="#7a7b7a" d="M 658.5,364.5 C 659.043,364.56 659.376,364.893 659.5,365.5C 645.006,366.826 630.672,366.826 616.5,365.5C 630.677,365.829 644.677,365.496 658.5,364.5 Z"/></g>
<g><path style="opacity:1" fill="#cecece" d="M 935.5,334.5 C 934.183,347.399 931.683,360.066 928,372.5C 924.858,377.638 921.024,382.138 916.5,386C 910.932,389.286 904.932,391.119 898.5,391.5C 898.5,391.167 898.5,390.833 898.5,390.5C 899.492,390.672 900.158,390.338 900.5,389.5C 914.803,386.701 924.303,378.367 929,364.5C 929.861,355.057 931.361,345.724 933.5,336.5C 934.167,335.833 934.833,335.167 935.5,334.5 Z"/></g>
<g><path style="opacity:1" fill="#151515" d="M 900.5,389.5 C 900.158,390.338 899.492,390.672 898.5,390.5C 809.16,389.836 720.16,390.503 631.5,392.5C 630.596,391.791 630.263,390.791 630.5,389.5C 720.5,389.5 810.5,389.5 900.5,389.5 Z"/></g>
<g><path style="opacity:1" fill="#b9b9b9" d="M 898.5,390.5 C 898.5,390.833 898.5,391.167 898.5,391.5C 810.691,391.726 723.691,391.726 637.5,391.5C 635.585,391.216 633.919,391.549 632.5,392.5C 632.167,392.5 631.833,392.5 631.5,392.5C 720.16,390.503 809.16,389.836 898.5,390.5 Z"/></g>
<g><path style="opacity:1" fill="#d0d0d0" d="M 385.5,60.5 C 381.298,60.1832 377.298,60.5166 373.5,61.5C 369.148,63.0123 364.815,64.5123 360.5,66C 356.272,69.2742 352.272,72.7742 348.5,76.5C 344.765,83.0617 341.265,89.7284 338,96.5C 295.798,166.194 253.798,235.86 212,305.5C 184.686,353.463 156.353,400.797 127,447.5C 114.857,468.787 104.024,490.787 94.5,513.5C 93.8333,513.833 93.1667,514.167 92.5,514.5C 98.9785,496.544 106.812,479.21 116,462.5C 193.184,334.132 269.85,205.465 346,76.5C 356.308,63.7522 369.475,58.4189 385.5,60.5 Z"/></g>
<g><path style="opacity:1" fill="#9a9a99" d="M 431.5,546.5 C 431.5,549.5 431.5,552.5 431.5,555.5C 430.668,524.003 430.168,492.336 430,460.5C 427.066,456.203 422.899,454.203 417.5,454.5C 412.967,454.349 409.8,456.349 408,460.5C 407.5,532.166 407.333,603.833 407.5,675.5C 406.501,604.002 406.167,532.335 406.5,460.5C 410.808,451.676 417.474,449.509 426.5,454C 428.57,454.948 430.07,456.448 431,458.5C 431.5,487.831 431.667,517.165 431.5,546.5 Z"/></g>
<g><path style="opacity:1" fill="#050505" d="M 431.5,555.5 C 466.167,555.5 500.833,555.5 535.5,555.5C 535.333,524.165 535.5,492.832 536,461.5C 540.438,454.405 546.605,452.572 554.5,456C 556,457.5 557.5,459 559,460.5C 559.667,532.5 559.667,604.5 559,676.5C 558.31,679.196 556.81,681.363 554.5,683C 550.259,684.457 545.926,684.791 541.5,684C 539.242,681.415 537.409,678.582 536,675.5C 535.5,643.502 535.333,611.502 535.5,579.5C 524.167,579.5 512.833,579.5 501.5,579.5C 482.922,580.252 464.256,580.252 445.5,579.5C 440.833,579.5 436.167,579.5 431.5,579.5C 430.668,611.997 430.168,644.664 430,677.5C 423.154,686.442 415.821,686.776 408,678.5C 407.517,677.552 407.351,676.552 407.5,675.5C 407.333,603.833 407.5,532.166 408,460.5C 409.8,456.349 412.967,454.349 417.5,454.5C 422.899,454.203 427.066,456.203 430,460.5C 430.168,492.336 430.668,524.003 431.5,555.5 Z"/></g>
<g><path style="opacity:1" fill="#d5d5d5" d="M 501.5,579.5 C 512.833,579.5 524.167,579.5 535.5,579.5C 535.333,611.502 535.5,643.502 536,675.5C 537.409,678.582 539.242,681.415 541.5,684C 545.926,684.791 550.259,684.457 554.5,683C 556.81,681.363 558.31,679.196 559,676.5C 559.667,604.5 559.667,532.5 559,460.5C 557.5,459 556,457.5 554.5,456C 546.605,452.572 540.438,454.405 536,461.5C 535.5,492.832 535.333,524.165 535.5,555.5C 500.833,555.5 466.167,555.5 431.5,555.5C 431.5,552.5 431.5,549.5 431.5,546.5C 432.473,548.948 432.806,551.615 432.5,554.5C 466.072,553.904 499.738,553.737 533.5,554C 534.329,522.905 534.829,491.738 535,460.5C 536.549,455.958 539.716,453.125 544.5,452C 550.005,451.279 554.838,452.779 559,456.5C 561.132,461.241 562.299,466.241 562.5,471.5C 561.408,531.954 561.408,592.454 562.5,653C 562.304,660.853 561.804,668.686 561,676.5C 557.111,686.02 550.277,688.853 540.5,685C 537.945,683.445 536.112,681.278 535,678.5C 534.5,645.835 534.333,613.168 534.5,580.5C 523.321,580.828 512.321,580.495 501.5,579.5 Z"/></g>
<g><path style="opacity:1" fill="#030303" d="M 219.5,516.5 C 223.536,517.02 226.703,519.02 229,522.5C 229.333,528.167 229.667,533.833 230,539.5C 239.461,529.183 250.961,522.516 264.5,519.5C 268.025,518.79 271.358,517.79 274.5,516.5C 320.26,513.455 350.76,533.455 366,576.5C 366.633,580.347 367.467,584.014 368.5,587.5C 368.775,597.616 368.109,607.616 366.5,617.5C 365.054,620.254 364.054,623.254 363.5,626.5C 351.666,658.166 328.999,676.333 295.5,681C 285.01,681.651 274.676,680.651 264.5,678C 258.303,675.04 251.97,672.54 245.5,670.5C 242.09,666.762 238.09,663.762 233.5,661.5C 232.5,660.167 231.5,658.833 230.5,657.5C 230.44,656.957 230.107,656.624 229.5,656.5C 228.5,685.826 228.167,715.159 228.5,744.5C 226.715,750.916 222.382,754.25 215.5,754.5C 209.323,753.992 205.656,750.659 204.5,744.5C 204.5,671.167 204.5,597.833 204.5,524.5C 205.81,521.527 207.81,519.193 210.5,517.5C 213.43,516.701 216.43,516.368 219.5,516.5 Z M 300.5,542.5 C 304.353,544.007 308.353,545.34 312.5,546.5C 313.659,548.25 315.326,549.25 317.5,549.5C 341.283,568.831 348.283,592.831 338.5,621.5C 333.704,629.559 328.038,637.059 321.5,644C 292.498,661.393 266.665,657.559 244,632.5C 229.019,610.104 228.686,587.438 243,564.5C 257.502,545.492 276.669,538.159 300.5,542.5 Z"/></g>
<g><path style="opacity:1" fill="#d2d2d2" d="M 368.5,584.5 C 368.5,585.5 368.5,586.5 368.5,587.5C 367.467,584.014 366.633,580.347 366,576.5C 350.76,533.455 320.26,513.455 274.5,516.5C 270.655,516.288 267.321,517.288 264.5,519.5C 250.961,522.516 239.461,529.183 230,539.5C 229.667,533.833 229.333,528.167 229,522.5C 226.703,519.02 223.536,517.02 219.5,516.5C 217.034,515.366 214.367,515.199 211.5,516C 210.944,516.383 210.611,516.883 210.5,517.5C 207.81,519.193 205.81,521.527 204.5,524.5C 204.167,524.5 203.833,524.5 203.5,524.5C 203.062,524.565 202.728,524.399 202.5,524C 204.113,520.054 206.78,517.054 210.5,515C 225.756,512.418 233.09,518.918 232.5,534.5C 247.956,520.75 266.122,514.084 287,514.5C 320.872,515.372 345.872,530.705 362,560.5C 365.621,568.106 367.788,576.106 368.5,584.5 Z"/></g>
<g><path style="opacity:1" fill="#585857" d="M 274.5,516.5 C 271.358,517.79 268.025,518.79 264.5,519.5C 267.321,517.288 270.655,516.288 274.5,516.5 Z"/></g>
<g><path style="opacity:1" fill="#5b5b5b" d="M 219.5,516.5 C 216.43,516.368 213.43,516.701 210.5,517.5C 210.611,516.883 210.944,516.383 211.5,516C 214.367,515.199 217.034,515.366 219.5,516.5 Z"/></g>
<g><path style="opacity:1" fill="#b9b9b9" d="M 300.5,542.5 C 305.133,542.16 309.133,543.494 312.5,546.5C 308.353,545.34 304.353,544.007 300.5,542.5 Z"/></g>
<g><path style="opacity:1" fill="#d8d8d8" d="M 312.5,546.5 C 314.674,546.75 316.341,547.75 317.5,549.5C 315.326,549.25 313.659,548.25 312.5,546.5 Z"/></g>
<g><path style="opacity:1" fill="#d5d5d5" d="M 406.5,460.5 C 406.167,532.335 406.501,604.002 407.5,675.5C 407.351,676.552 407.517,677.552 408,678.5C 415.821,686.776 423.154,686.442 430,677.5C 430.168,644.664 430.668,611.997 431.5,579.5C 431.5,586.167 431.5,592.833 431.5,599.5C 431.399,605.357 431.733,611.19 432.5,617C 431.718,638.154 431.218,659.321 431,680.5C 425.223,687.977 418.389,689.143 410.5,684C 408.383,682.269 406.883,680.102 406,677.5C 405.168,604.999 405.334,532.666 406.5,460.5 Z"/></g>
<g><path style="opacity:1" fill="#909090" d="M 81.5,553.5 C 81.4349,556.428 80.7682,559.095 79.5,561.5C 79.2938,558.505 79.9605,555.838 81.5,553.5 Z"/></g>
<g><path style="opacity:1" fill="#f0f0f0" d="M 431.5,579.5 C 436.167,579.5 440.833,579.5 445.5,579.5C 441.366,580.485 437.032,580.818 432.5,580.5C 432.823,587.022 432.49,593.355 431.5,599.5C 431.5,592.833 431.5,586.167 431.5,579.5 Z"/></g>
<g><path style="opacity:1" fill="#cbcbcb" d="M 317.5,549.5 C 323.359,552.846 328.526,557.18 333,562.5C 341.385,574.545 345.051,587.879 344,602.5C 343.333,606.5 342.667,610.5 342,614.5C 341.33,617.174 340.163,619.507 338.5,621.5C 348.283,592.831 341.283,568.831 317.5,549.5 Z"/></g>
<g><path style="opacity:1" fill="#868584" d="M 233.5,579.5 C 233.59,582.152 232.924,584.485 231.5,586.5C 231.41,583.848 232.076,581.515 233.5,579.5 Z"/></g>
<g><path style="opacity:1" fill="#eaeaea" d="M 368.5,584.5 C 369.268,585.263 369.768,586.263 370,587.5C 371.409,599.253 370.242,610.586 366.5,621.5C 366.5,620.167 366.5,618.833 366.5,617.5C 368.109,607.616 368.775,597.616 368.5,587.5C 368.5,586.5 368.5,585.5 368.5,584.5 Z"/></g>
<g><path style="opacity:1" fill="#a0a0a0" d="M 76.5,579.5 C 76.784,585.417 76.1173,591.084 74.5,596.5C 74.3213,590.596 74.9879,584.929 76.5,579.5 Z"/></g>
<g><path style="opacity:1" fill="#d7d7d7" d="M 699.5,603.5 C 702.299,600.861 705.632,600.028 709.5,601C 724.445,608.129 726.111,617.463 714.5,629C 705.294,633.65 698.127,631.483 693,622.5C 689.533,614.062 691.7,607.728 699.5,603.5 Z"/></g>
<g><path style="opacity:1" fill="#0a0a0a" d="M 699.5,603.5 C 714.207,601.708 720.707,608.042 719,622.5C 709.236,632.654 700.902,631.654 694,619.5C 693.333,616.833 693.333,614.167 694,611.5C 696.08,608.935 697.913,606.268 699.5,603.5 Z"/></g>
<g><path style="opacity:1" fill="#dfdfdf" d="M 48.5,605.5 C 48.1712,618.677 48.5045,631.677 49.5,644.5C 49.5,646.833 49.5,649.167 49.5,651.5C 49.5,653.833 49.5,656.167 49.5,658.5C 48.0069,648.04 47.3402,637.374 47.5,626.5C 47.5003,619.325 47.8337,612.325 48.5,605.5 Z"/></g>
<g><path style="opacity:1" fill="#828282" d="M 366.5,617.5 C 366.5,618.833 366.5,620.167 366.5,621.5C 366.5,621.833 366.5,622.167 366.5,622.5C 365.857,624.076 364.857,625.41 363.5,626.5C 364.054,623.254 365.054,620.254 366.5,617.5 Z"/></g>
<g><path style="opacity:1" fill="#484848" d="M 50.5,591.5 C 49.6954,609.154 49.3621,626.821 49.5,644.5C 48.5045,631.677 48.1712,618.677 48.5,605.5C 48.5,605.167 48.5,604.833 48.5,604.5C 49.0506,600.027 49.7173,595.693 50.5,591.5 Z"/></g>
<g><path style="opacity:1" fill="#949594" d="M 203.5,524.5 C 203.833,524.5 204.167,524.5 204.5,524.5C 204.5,597.833 204.5,671.167 204.5,744.5C 203.515,740.366 203.182,736.032 203.5,731.5C 202.86,661.884 202.86,592.884 203.5,524.5 Z"/></g>
<g><path style="opacity:1" fill="#d5d5d5" d="M 300.5,542.5 C 276.669,538.159 257.502,545.492 243,564.5C 228.686,587.438 229.019,610.104 244,632.5C 266.665,657.559 292.498,661.393 321.5,644C 328.038,637.059 333.704,629.559 338.5,621.5C 332.18,638.649 320.18,649.816 302.5,655C 294.227,656.33 285.893,656.83 277.5,656.5C 275.485,655.076 273.152,654.41 270.5,654.5C 240.906,641.309 227.906,618.642 231.5,586.5C 232.924,584.485 233.59,582.152 233.5,579.5C 240.369,559.403 254.036,546.57 274.5,541C 281.5,540.333 288.5,540.333 295.5,541C 297.382,541.198 299.048,541.698 300.5,542.5 Z"/></g>
<g><path style="opacity:1" fill="#717070" d="M 270.5,654.5 C 273.152,654.41 275.485,655.076 277.5,656.5C 274.848,656.59 272.515,655.924 270.5,654.5 Z"/></g>
<g><path style="opacity:1" fill="#8d8d8d" d="M 49.5,651.5 C 50.7249,656.29 51.3916,661.29 51.5,666.5C 50.8333,665.5 50.1667,664.5 49.5,663.5C 49.5,661.833 49.5,660.167 49.5,658.5C 49.5,656.167 49.5,653.833 49.5,651.5 Z"/></g>
<g><path style="opacity:1" fill="#484848" d="M 74.5,653.5 C 75.6874,656.946 76.3541,660.613 76.5,664.5C 74.783,661.155 74.1164,657.489 74.5,653.5 Z"/></g>
<g><path style="opacity:1" fill="#d8d8d8" d="M 713.5,697.5 C 713.5,695.5 713.5,693.5 713.5,691.5C 714.324,687.201 714.991,682.867 715.5,678.5C 715.953,673.571 713.953,670.071 709.5,668C 701.622,664.596 695.456,666.43 691,673.5C 688.375,692.703 683.708,711.37 677,729.5C 675.726,732.391 674.226,735.058 672.5,737.5C 675.843,727.579 679.009,717.912 682,708.5C 684.959,697.291 687.292,685.958 689,674.5C 692.762,664.843 699.596,661.677 709.5,665C 714.712,667.755 717.379,672.089 717.5,678C 716.955,684.8 715.622,691.3 713.5,697.5 Z"/></g>
<g><path style="opacity:1" fill="#d0d0d0" d="M 233.5,661.5 C 238.09,663.762 242.09,666.762 245.5,670.5C 243.303,669.155 240.97,667.989 238.5,667C 236.234,665.574 234.568,663.74 233.5,661.5 Z"/></g>
<g><path style="opacity:1" fill="#cecece" d="M 366.5,622.5 C 358.423,649.748 341.089,668.582 314.5,679C 296.127,684.612 277.794,684.279 259.5,678C 254.326,676.249 249.659,673.749 245.5,670.5C 251.97,672.54 258.303,675.04 264.5,678C 274.676,680.651 285.01,681.651 295.5,681C 328.999,676.333 351.666,658.166 363.5,626.5C 364.857,625.41 365.857,624.076 366.5,622.5 Z"/></g>
<g><path style="opacity:1" fill="#545454" d="M 230.5,657.5 C 229.833,686.5 229.167,715.5 228.5,744.5C 228.167,715.159 228.5,685.826 229.5,656.5C 230.107,656.624 230.44,656.957 230.5,657.5 Z"/></g>
<g><path style="opacity:1" fill="#dedede" d="M 230.5,657.5 C 231.5,658.833 232.5,660.167 233.5,661.5C 232.883,661.611 232.383,661.944 232,662.5C 231.616,672.673 231.116,682.839 230.5,693C 230.983,708.024 231.316,722.857 231.5,737.5C 230.966,753.612 222.966,759.112 207.5,754C 205.116,751.621 203.616,748.787 203,745.5C 202.185,740.648 202.352,735.981 203.5,731.5C 203.182,736.032 203.515,740.366 204.5,744.5C 205.656,750.659 209.323,753.992 215.5,754.5C 222.382,754.25 226.715,750.916 228.5,744.5C 229.167,715.5 229.833,686.5 230.5,657.5 Z"/></g>
<g><path style="opacity:1" fill="#c6c6c6" d="M 49.5,663.5 C 50.1667,664.5 50.8333,665.5 51.5,666.5C 54.3148,680.811 57.1481,695.145 60,709.5C 71.1282,747.75 87.6282,783.417 109.5,816.5C 107.366,814.314 105.199,811.981 103,809.5C 74.113,764.755 56.2796,716.089 49.5,663.5 Z"/></g>
<g><path style="opacity:1" fill="#dedede" d="M 94.5,513.5 C 56.456,628.849 75.456,733.182 151.5,826.5C 164.192,840.192 177.525,853.192 191.5,865.5C 190.833,865.5 190.167,865.5 189.5,865.5C 126.155,813.162 88.4879,746.162 76.5,664.5C 76.3541,660.613 75.6874,656.946 74.5,653.5C 73.1961,634.495 73.1961,615.495 74.5,596.5C 76.1173,591.084 76.784,585.417 76.5,579.5C 76.8533,573.38 77.8533,567.38 79.5,561.5C 80.7682,559.095 81.4349,556.428 81.5,553.5C 84.0345,540.149 87.7012,527.149 92.5,514.5C 93.1667,514.167 93.8333,513.833 94.5,513.5 Z"/></g>
<g><path style="opacity:1" fill="#d4d4d4" d="M 672.5,737.5 C 667.995,752.165 661.828,766.165 654,779.5C 586.627,888.112 488.794,940.445 360.5,936.5C 355.402,935.043 350.069,934.376 344.5,934.5C 285.991,926.605 234.324,903.605 189.5,865.5C 190.167,865.5 190.833,865.5 191.5,865.5C 286.629,938.877 390.629,954.043 503.5,911C 582.121,874.726 638.454,816.893 672.5,737.5 Z"/></g>
<g><path style="opacity:1" fill="#cccccc" d="M 109.5,816.5 C 127.479,839.988 147.479,861.821 169.5,882C 177.554,888.387 185.888,894.387 194.5,900C 196.041,901.371 197.375,902.871 198.5,904.5C 175.142,889.327 153.975,871.327 135,850.5C 126.907,839.984 118.573,829.65 110,819.5C 109.517,818.552 109.351,817.552 109.5,816.5 Z"/></g>
<g><path style="opacity:1" fill="#cecece" d="M 713.5,691.5 C 713.5,693.5 713.5,695.5 713.5,697.5C 688.478,800.68 629.145,877.18 535.5,927C 517.243,936.251 498.243,943.417 478.5,948.5C 496.54,941.655 514.54,934.488 532.5,927C 628.45,875.883 688.783,797.383 713.5,691.5 Z"/></g>
<g><path style="opacity:1" fill="#dbdbdb" d="M 198.5,904.5 C 200.284,904.893 201.95,905.559 203.5,906.5C 203.833,907.167 204.167,907.833 204.5,908.5C 201.802,908.155 199.802,906.822 198.5,904.5 Z"/></g>
<g><path style="opacity:1" fill="#696969" d="M 203.5,906.5 C 205.027,906.427 206.027,907.094 206.5,908.5C 205.833,908.5 205.167,908.5 204.5,908.5C 204.167,907.833 203.833,907.167 203.5,906.5 Z"/></g>
<g><path style="opacity:1" fill="#dcdcdc" d="M 204.5,908.5 C 205.167,908.5 205.833,908.5 206.5,908.5C 223.428,919.408 241.095,929.075 259.5,937.5C 239.778,930.143 221.445,920.476 204.5,908.5 Z"/></g>
<g><path style="opacity:1" fill="#737372" d="M 344.5,934.5 C 350.069,934.376 355.402,935.043 360.5,936.5C 354.949,936.473 349.616,935.806 344.5,934.5 Z"/></g>
<g><path style="opacity:1" fill="#e2e2e2" d="M 259.5,937.5 C 261.786,937.595 263.786,938.262 265.5,939.5C 263.102,939.741 261.102,939.074 259.5,937.5 Z"/></g>
<g><path style="opacity:1" fill="#d4d4d4" d="M 265.5,939.5 C 270.081,940.582 274.414,942.248 278.5,944.5C 273.728,943.801 269.395,942.134 265.5,939.5 Z"/></g>
<g><path style="opacity:1" fill="#cdcdcd" d="M 278.5,944.5 C 281.522,944.804 284.522,945.304 287.5,946C 288.056,946.383 288.389,946.883 288.5,947.5C 284.884,947.101 281.55,946.101 278.5,944.5 Z"/></g>
<g><path style="opacity:1" fill="#a2a3a2" d="M 288.5,947.5 C 291.082,947.025 293.082,947.692 294.5,949.5C 292.302,949.125 290.302,948.458 288.5,947.5 Z"/></g>
<g><path style="opacity:1" fill="#bfbebe" d="M 295.5,949.5 C 297.527,949.338 299.527,949.505 301.5,950C 302.056,950.383 302.389,950.883 302.5,951.5C 299.848,951.59 297.515,950.924 295.5,949.5 Z"/></g>
<g><path style="opacity:1" fill="#cdcdcd" d="M 307.5,952.5 C 313.256,953.023 318.922,954.023 324.5,955.5C 325.833,956.167 327.167,956.833 328.5,957.5C 321.216,956.571 314.216,954.904 307.5,952.5 Z"/></g>
<g><path style="opacity:1" fill="#c8c8c8" d="M 478.5,948.5 C 469.572,952.065 460.239,954.399 450.5,955.5C 459.434,952.267 468.767,949.933 478.5,948.5 Z"/></g>
<g><path style="opacity:1" fill="#898989" d="M 324.5,955.5 C 329.17,955.511 333.503,956.511 337.5,958.5C 334.391,958.736 331.391,958.403 328.5,957.5C 327.167,956.833 325.833,956.167 324.5,955.5 Z"/></g>
<g><path style="opacity:1" fill="#b4b4b4" d="M 337.5,958.5 C 356.14,959.832 374.807,960.498 393.5,960.5C 393.5,960.833 393.5,961.167 393.5,961.5C 390.884,962.052 388.217,962.386 385.5,962.5C 375.176,961.827 364.843,961.327 354.5,961C 348.652,960.411 342.986,959.578 337.5,958.5 Z"/></g>
<g><path style="opacity:1" fill="#dadada" d="M 444.5,956.5 C 435.131,958.983 425.464,960.316 415.5,960.5C 424.952,958.594 434.618,957.261 444.5,956.5 Z"/></g>
<g><path style="opacity:1" fill="#e1e1e1" d="M 393.5,961.5 C 393.5,961.167 393.5,960.833 393.5,960.5C 400.5,960.5 407.5,960.5 414.5,960.5C 408.099,961.184 401.599,961.85 395,962.5C 394.617,961.944 394.117,961.611 393.5,961.5 Z"/></g>
</svg>
